<svg width="96" height="96" viewBox="0 0 96 96" fill="none" xmlns="http://www.w3.org/2000/svg">
<g clip-path="url(#clip0_8_62)">
<path d="M53 57.5278V90.9722H41V57.5278H53ZM71 52.75H65V57.5278H59V52.75H35V57.5278H29V52.75H23V95.75H29V90.9722H35V95.75H59V90.9722H65V95.75H71V52.75ZM59 67.0833V62.3056H65V67.0833H59ZM29 67.0833V62.3056H35V67.0833H29ZM59 76.6389V71.8611H65V76.6389H59ZM29 76.6389V71.8611H35V76.6389H29ZM59 86.1944V81.4167H65V86.1944H59ZM29 86.1944V81.4167H35V86.1944H29Z" fill="#F07232"/>
<path d="M36.417 29H81.333C84.5395 29 86.7499 31.0441 86.75 33.083V68.667C86.7496 70.7058 84.5393 72.75 81.333 72.75H36.417C33.2107 72.75 31.0004 70.7058 31 68.667V33.083C31.0001 31.0441 33.2105 29 36.417 29ZM66.1816 50.1748L55.6416 60.9326L48.3359 53.9639L47.623 53.2832L46.9326 53.9863L35.7031 65.4238L34.0332 67.125H83.6572L82.0596 65.4375L67.6221 50.1875L66.9082 49.4336L66.1816 50.1748Z" fill="#F07232" stroke="#262626" stroke-width="2"/>
</g>
<defs>
<clipPath id="clip0_8_62">
<rect width="96" height="96" fill="white"/>
</clipPath>
</defs>
</svg>
