<svg width="80" height="64" viewBox="0 0 80 64" fill="none" xmlns="http://www.w3.org/2000/svg">
<path d="M8 64C5.8 64 3.91733 63.2173 2.352 61.652C0.784 60.084 0 58.2 0 56V8C0 5.8 0.784 3.91733 2.352 2.352C3.91733 0.783999 5.8 0 8 0H56C58.2 0 60.084 0.783999 61.652 2.352C63.2173 3.91733 64 5.8 64 8V26L76.6 13.4C77.2 12.8 77.9173 12.6493 78.752 12.948C79.584 13.2493 80 13.8667 80 14.8V49.2C80 50.1333 79.584 50.7493 78.752 51.048C77.9173 51.3493 77.2 51.2 76.6 50.6L64 38V56C64 58.2 63.2173 60.084 61.652 61.652C60.084 63.2173 58.2 64 56 64H8ZM16.1 48H47.9C48.7667 48 49.384 47.6333 49.752 46.9C50.1173 46.1667 50.0333 45.4667 49.5 44.8L39.8 32.1C39.4 31.5667 38.8667 31.3 38.2 31.3C37.5333 31.3 37 31.5667 36.6 32.1L29 42L24.4 36C24 35.4667 23.4667 35.2 22.8 35.2C22.1333 35.2 21.6 35.4667 21.2 36L14.5 44.8C13.9667 45.4667 13.8827 46.1667 14.248 46.9C14.616 47.6333 15.2333 48 16.1 48Z" fill="#F07232"/>
</svg>
